<?xml version="1.0" standalone="no"?>
<!DOCTYPE svg PUBLIC "-//W3C//DTD SVG 20010904//EN"
 "http://www.w3.org/TR/2001/REC-SVG-20010904/DTD/svg10.dtd">
<svg version="1.0" xmlns="http://www.w3.org/2000/svg"
 width="1282.000000pt" height="1282.000000pt" viewBox="0 0 1282.000000 1282.000000"
 preserveAspectRatio="xMidYMid meet">
<metadata>
Created by potrace 1.14, written by Peter Selinger 2001-2017
</metadata>
<g transform="translate(0.000000,1282.000000) scale(0.100000,-0.100000)"
fill="#000000" stroke="none">
<path d="M6458 12765 c-1 -2 -62 -6 -133 -10 -234 -11 -348 -22 -545 -55 -30
-5 -77 -11 -105 -15 -306 -35 -820 -177 -1175 -323 -154 -64 -500 -237 -590
-296 -74 -48 -120 -76 -125 -76 -2 0 -35 -22 -73 -50 -38 -27 -74 -50 -80 -50
-6 0 -15 -6 -19 -13 -4 -6 -44 -39 -88 -71 -148 -110 -259 -209 -465 -416
-191 -191 -274 -283 -392 -435 -26 -33 -65 -82 -86 -110 -22 -27 -45 -60 -51
-72 -6 -13 -33 -51 -59 -85 -26 -35 -54 -77 -62 -93 -8 -16 -34 -58 -57 -94
-67 -102 -73 -98 139 -100 100 -1 186 -5 190 -8 5 -3 3 -12 -5 -21 -7 -10 -23
-33 -34 -54 l-21 -36 33 -4 c18 -2 698 -5 1512 -7 l1480 -3 64 39 c204 126
549 240 809 268 30 3 89 10 130 15 78 9 466 6 510 -4 14 -3 57 -10 95 -16 219
-34 425 -112 645 -245 l93 -55 1539 0 1539 0 -31 58 c-16 31 -30 60 -30 65 0
4 11 7 25 7 14 0 28 6 31 14 7 18 -160 339 -251 481 -222 347 -443 601 -751
865 -89 76 -236 187 -313 235 -8 6 -40 26 -71 46 -67 44 -176 105 -332 188
-380 201 -969 381 -1473 451 -82 11 -172 25 -200 30 -83 16 -308 35 -520 45
-152 7 -692 15 -697 10z"/>
<path d="M1936 9668 c-24 -59 -101 -263 -112 -299 -7 -22 10 -24 196 -28 85
-1 157 -4 159 -7 2 -2 -3 -22 -12 -44 l-15 -40 1340 2 1341 3 74 145 c41 80
99 184 129 233 30 48 54 89 54 92 0 3 -704 5 -1564 5 l-1564 0 -26 -62z"/>
<path d="M8479 9722 l-25 -3 46 -97 c26 -53 52 -115 59 -137 34 -109 44 -126
80 -143 27 -13 37 -25 44 -54 l9 -38 1355 0 c1285 0 1354 1 1350 18 -19 67
-18 76 3 92 l21 16 -36 134 c-51 195 -53 201 -60 208 -6 7 -2794 11 -2846 4z"/>
<path d="M1664 8840 c-15 -6 -24 -23 -32 -62 -6 -29 -32 -143 -57 -253 -24
-110 -45 -210 -45 -223 0 -36 21 -39 238 -41 l122 -1 0 -25 0 -25 1323 0 1322
0 29 142 c16 77 39 184 52 237 13 53 22 102 19 109 -3 9 -39 12 -130 12 -116
0 -126 1 -121 18 13 44 23 102 17 103 -73 10 -2713 19 -2737 9z"/>
<path d="M1450 7630 c-4 -8 -11 -58 -14 -110 -4 -52 -9 -115 -11 -140 -3 -25
-7 -73 -10 -106 l-5 -62 198 -6 c108 -4 785 -9 1505 -12 l1307 -6 1 39 c0 21
2 47 4 58 1 11 6 63 9 115 9 128 16 200 22 228 l5 24 -1501 -3 c-1335 -3
-1503 -5 -1510 -19z"/>
<path d="M1380 6599 c-5 -171 -3 -479 3 -486 9 -8 172 -10 1540 -18 l1197 -7
0 31 0 31 140 0 140 0 0 240 0 240 -131 0 c-122 0 -131 1 -136 20 -3 11 -8 21
-12 21 -22 4 -444 8 -1517 14 l-1221 8 -3 -94z"/>
<path d="M2006 5583 c-1 -1 -121 -3 -266 -4 -146 -1 -280 -4 -299 -7 l-34 -5
7 -116 c7 -117 14 -215 21 -261 2 -14 4 -37 4 -52 l1 -28 1515 0 1515 0 0 23
c0 12 -5 63 -10 112 -16 144 -20 175 -26 263 l-7 82 -1209 -2 c-665 -2 -1211
-4 -1212 -5z"/>
<path d="M1925 4542 c-22 -2 -44 -7 -50 -12 -6 -5 -87 -10 -180 -11 -94 -1
-177 -5 -187 -8 -14 -5 -8 -38 54 -289 l71 -284 1351 3 c743 2 1374 5 1402 7
l52 4 -15 55 c-8 30 -13 57 -11 58 2 2 55 5 117 6 62 1 121 3 131 6 15 4 12
22 -31 196 -27 105 -51 211 -55 235 l-6 43 -1302 -3 c-715 -1 -1319 -4 -1341
-6z"/>
<path d="M8870 4355 c-6 -15 -10 -31 -10 -36 0 -8 -22 -13 -42 -10 -4 0 -14
-9 -22 -22 -13 -21 -17 -38 -32 -147 -3 -24 -7 -48 -10 -51 -2 -4 13 -9 34
-11 57 -7 2529 -6 2596 1 84 9 83 27 -1 35 -81 8 -147 16 -188 21 -16 2 -61 6
-100 10 -38 3 -104 10 -145 15 -41 5 -102 12 -135 15 -33 3 -78 8 -100 10
-138 16 -328 36 -375 40 -30 3 -68 8 -85 10 -16 2 -79 9 -140 16 -60 6 -126
13 -145 15 -137 14 -706 74 -760 80 -30 3 -71 7 -90 9 -19 2 -62 7 -95 10 -33
3 -79 8 -103 11 -38 4 -43 2 -52 -21z"/>
<path d="M2161 3464 c11 -26 18 -48 16 -51 -2 -2 -73 -6 -158 -9 -85 -4 -161
-8 -169 -10 -8 -1 -18 -3 -22 -3 -15 -2 -8 -28 41 -157 99 -259 168 -412 293
-658 61 -120 223 -393 278 -469 17 -23 52 -73 78 -112 173 -257 507 -624 762
-838 63 -53 131 -110 150 -126 20 -16 58 -45 85 -63 28 -18 75 -52 105 -74 53
-38 167 -111 295 -186 106 -63 332 -177 442 -224 60 -25 122 -52 138 -59 112
-48 449 -158 610 -198 60 -16 230 -51 295 -62 19 -3 51 -10 70 -15 41 -11 155
-29 220 -36 25 -3 83 -9 130 -14 136 -15 188 -20 415 -35 97 -7 665 -7 805 0
105 5 294 18 430 31 117 10 299 36 390 55 52 11 164 33 249 49 195 37 433 106
710 204 160 57 458 199 624 298 55 32 102 58 107 58 4 0 13 6 19 14 7 8 63 49
124 91 164 111 189 131 340 260 118 101 323 311 420 430 81 98 138 174 189
250 33 50 68 99 77 110 10 11 31 45 48 75 16 30 62 110 101 177 39 67 90 163
113 215 23 51 45 98 49 103 34 46 185 457 255 694 46 155 52 198 30 215 -16
11 -16 16 -1 64 l15 52 -1342 0 -1343 0 -14 -42 c-10 -26 -25 -47 -44 -57 -21
-12 -39 -41 -73 -116 -120 -271 -220 -431 -348 -560 -351 -354 -786 -519
-1365 -519 -306 -1 -567 53 -832 169 -205 91 -360 198 -537 370 -206 200 -344
388 -481 653 l-53 102 -1378 0 -1378 0 20 -46z"/>
</g>
</svg>
